<svg xmlns="http://www.w3.org/2000/svg" xmlns:xlink="http://www.w3.org/1999/xlink" width="500" zoomAndPan="magnify" viewBox="0 0 375 374.999991" height="500" preserveAspectRatio="xMidYMid meet" version="1.0"><defs><g/></defs><g fill="#f13024" fill-opacity="0.502"><g transform="translate(113.345083, 237.244401)"><g><path d="M -5.207031 -12.121094 C -7.953125 -17.902344 -12.472656 -19.882812 -17.097656 -17.6875 C -22.648438 -15.050781 -21.4375 -9.683594 -20.402344 -5.183594 C -19.65625 -1.875 -18.984375 1.03125 -21.230469 2.097656 C -23.09375 2.980469 -24.882812 1.785156 -25.980469 -0.527344 C -27.167969 -3.03125 -26.972656 -5.679688 -24.660156 -7.523438 L -26.902344 -12.242188 C -31.832031 -8.957031 -32.214844 -3.464844 -29.972656 1.253906 C -27.625 6.195312 -23.386719 8.746094 -18.667969 6.503906 C -13.5 4.050781 -14.667969 -0.980469 -15.675781 -5.417969 C -16.480469 -8.855469 -17.195312 -11.9375 -14.660156 -13.140625 C -12.316406 -14.253906 -10.375 -12.816406 -9.171875 -10.28125 C -7.949219 -7.710938 -7.648438 -4.589844 -10.765625 -2.125 L -8.496094 2.65625 C -2.460938 -0.957031 -2.964844 -7.402344 -5.207031 -12.121094 Z M -5.207031 -12.121094 "/></g></g></g><g fill="#f13024" fill-opacity="0.502"><g transform="translate(104.0993, 216.680402)"><g/></g></g><g fill="#f13024" fill-opacity="0.502"><g transform="translate(101.823106, 208.678025)"><g/></g></g><g fill="#f13024" fill-opacity="0.502"><g transform="translate(100.32748, 200.49378)"><g/></g></g><g fill="#f13024" fill-opacity="0.502"><g transform="translate(98.877476, 193.15318)"><g><path d="M 0.550781 -5.585938 L -4.820312 -7.941406 L -3.804688 -18.230469 L 1.929688 -19.523438 L 2.457031 -24.863281 L -25.46875 -18.015625 L -26.019531 -12.425781 L 0.0234375 -0.246094 Z M -20.191406 -14.671875 L -8.402344 -17.257812 L -9.136719 -9.832031 Z M -20.191406 -14.671875 "/></g></g></g><g fill="#f13024" fill-opacity="0.502"><g transform="translate(101.634776, 170.30554)"><g/></g></g><g fill="#f13024" fill-opacity="0.502"><g transform="translate(103.832302, 162.281206)"><g/></g></g><g fill="#f13024" fill-opacity="0.502"><g transform="translate(106.791761, 154.505556)"><g/></g></g><g fill="#f13024" fill-opacity="0.502"><g transform="translate(108.5968, 147.517958)"><g><path d="M 4.75 -5.847656 L -13.207031 -20.4375 L 8.828125 -10.867188 L 11.988281 -14.757812 L -2 -34.453125 L 16.066406 -19.777344 L 19.292969 -23.75 L -1.75 -40.847656 L -7.128906 -34.226562 L 5.597656 -16.699219 L -14.1875 -25.539062 L -19.519531 -18.972656 L 1.523438 -1.875 Z M 4.75 -5.847656 "/></g></g></g><g fill="#f13024" fill-opacity="0.502"><g transform="translate(128.436831, 124.635875)"><g/></g></g><g fill="#f13024" fill-opacity="0.502"><g transform="translate(134.904431, 119.402416)"><g/></g></g><g fill="#f13024" fill-opacity="0.502"><g transform="translate(141.845595, 114.815555)"><g/></g></g><g fill="#f13024" fill-opacity="0.502"><g transform="translate(148.276475, 110.720386)"><g><path d="M 19.460938 -6.464844 L 18.015625 -10.816406 L 5.703125 -6.726562 L 3.585938 -13.101562 L 14.617188 -16.761719 L 13.183594 -21.082031 L 2.152344 -17.417969 L 0.046875 -23.757812 L 12.355469 -27.847656 L 10.914062 -32.195312 L -6.253906 -26.496094 L 2.292969 -0.761719 Z M 19.460938 -6.464844 "/></g></g></g><g fill="#f13024" fill-opacity="0.502"><g transform="translate(167.417294, 104.72271)"><g/></g></g><g fill="#f13024" fill-opacity="0.502"><g transform="translate(175.620119, 103.33243)"><g/></g></g><g fill="#f13024" fill-opacity="0.502"><g transform="translate(183.918632, 102.73789)"><g/></g></g><g fill="#f13024" fill-opacity="0.502"><g transform="translate(191.298586, 101.981592)"><g><path d="M 7.359375 1.609375 L 9.773438 -9.429688 L 21.125 -6.949219 L 18.710938 4.089844 L 23.710938 5.183594 L 29.503906 -21.304688 L 24.503906 -22.398438 L 22.105469 -11.425781 L 10.753906 -13.910156 L 13.152344 -24.878906 L 8.152344 -25.972656 L 2.359375 0.515625 Z M 7.359375 1.609375 "/></g></g></g><g fill="#f13024" fill-opacity="0.502"><g transform="translate(215.015879, 107.758147)"><g/></g></g><g fill="#f13024" fill-opacity="0.502"><g transform="translate(222.705763, 110.933819)"><g/></g></g><g fill="#f13024" fill-opacity="0.502"><g transform="translate(230.054406, 114.834687)"><g/></g></g><g fill="#f13024" fill-opacity="0.502"><g transform="translate(236.993559, 119.424559)"><g/></g></g><g fill="#f13024" fill-opacity="0.502"><g transform="translate(243.458882, 124.660827)"><g/></g></g><g fill="#f13024" fill-opacity="0.502"><g transform="translate(249.364052, 129.15137)"><g><path d="M 4.273438 6.203125 L 13.582031 -0.207031 L 20.171875 9.363281 L 10.867188 15.773438 L 13.769531 19.988281 L 36.101562 4.605469 L 33.195312 0.390625 L 23.949219 6.761719 L 17.355469 -2.808594 L 26.605469 -9.179688 L 23.699219 -13.394531 L 1.371094 1.988281 Z M 4.273438 6.203125 "/></g></g></g><g fill="#f13024" fill-opacity="0.502"><g transform="translate(262.733866, 149.575038)"><g/></g></g><g fill="#f13024" fill-opacity="0.502"><g transform="translate(266.178618, 157.148197)"><g/></g></g><g fill="#f13024" fill-opacity="0.502"><g transform="translate(269.370946, 163.912432)"><g><path d="M 0.824219 5.554688 L 6.613281 6.527344 L 8.132812 16.753906 L 2.886719 19.402344 L 3.675781 24.710938 L 29.089844 11.265625 L 28.261719 5.710938 L 0.0351562 0.246094 Z M 23.15625 9.308594 L 12.351562 14.691406 L 11.253906 7.308594 Z M 23.15625 9.308594 "/></g></g></g><g fill="#f13024" fill-opacity="0.502"><g transform="translate(272.266493, 186.745082)"><g/></g></g><g fill="#f13024" fill-opacity="0.502"><g transform="translate(272.090421, 195.063036)"><g/></g></g><g fill="#f13024" fill-opacity="0.502"><g transform="translate(272.740359, 202.253053)"><g><path d="M -2.511719 7.101562 L 19.300781 14.8125 L -4.667969 13.203125 L -6.335938 17.925781 L 13.453125 31.78125 L -8.492188 24.023438 L -10.199219 28.847656 L 15.367188 37.886719 L 18.210938 29.84375 L 0.335938 17.609375 L 21.941406 19.289062 L 24.761719 11.316406 L -0.804688 2.277344 Z M -2.511719 7.101562 "/></g></g></g><g fill="#f13024" fill-opacity="0.502"><g transform="translate(261.734471, 230.467282)"><g/></g></g><g fill="#f13024" fill-opacity="0.502"><g transform="translate(257.40025, 237.568944)"><g/></g></g><g fill="#f13024" fill-opacity="0.502"><g transform="translate(252.402779, 244.220579)"><g/></g></g><g fill="#f13024" fill-opacity="0.502"><g transform="translate(248.73537, 250.437798)"><g><path d="M -6.183594 4.300781 L 7.027344 23.292969 L -11.492188 7.996094 L -15.605469 10.859375 L -7.625 33.660156 L -20.917969 14.550781 L -25.117188 17.472656 L -9.632812 39.734375 L -2.628906 34.863281 L -10.003906 14.492188 L 6.558594 28.46875 L 13.5 23.640625 L -1.984375 1.378906 Z M -6.183594 4.300781 "/></g></g></g><g fill="#f13024" fill-opacity="0.502"><g transform="translate(223.330931, 266.925963)"><g/></g></g><g fill="#f13024" fill-opacity="0.502"><g transform="translate(215.666758, 270.163157)"><g/></g></g><g fill="#f13024" fill-opacity="0.502"><g transform="translate(208.81581, 273.170162)"><g><path d="M -5.574219 0.675781 L -6.703125 6.429688 L -16.96875 7.671875 L -19.476562 2.355469 L -24.800781 3 L -12.054688 28.773438 L -6.480469 28.097656 L -0.246094 0.03125 Z M -9.9375 22.894531 L -15.019531 11.949219 L -7.613281 11.050781 Z M -9.9375 22.894531 "/></g></g></g><g fill="#f13024" fill-opacity="0.502"><g transform="translate(185.915016, 275.442631)"><g/></g></g><g fill="#f13024" fill-opacity="0.502"><g transform="translate(177.604978, 275.040077)"><g/></g></g><g fill="#f13024" fill-opacity="0.502"><g transform="translate(170.151374, 274.83461)"><g><path d="M -9.746094 -3.347656 C -18.386719 -6.316406 -24.738281 -3.351562 -27.554688 4.851562 C -30.386719 13.085938 -27.226562 19.316406 -18.554688 22.296875 L -11.09375 24.859375 L -2.285156 -0.785156 Z M -14.445312 18.859375 L -17.035156 17.972656 C -22.210938 16.195312 -24.761719 12.460938 -22.714844 6.511719 C -20.535156 0.160156 -16.277344 -0.746094 -11.167969 1.011719 L -8.613281 1.886719 Z M -14.445312 18.859375 "/></g></g></g><g fill="#f13024" fill-opacity="0.302"><g transform="translate(113.33513, 237.287701)"><g><path d="M -5.207031 -12.121094 C -7.953125 -17.902344 -12.472656 -19.882812 -17.097656 -17.6875 C -22.648438 -15.050781 -21.4375 -9.683594 -20.402344 -5.183594 C -19.65625 -1.875 -18.984375 1.03125 -21.230469 2.097656 C -23.09375 2.980469 -24.882812 1.785156 -25.980469 -0.527344 C -27.167969 -3.03125 -26.972656 -5.679688 -24.660156 -7.523438 L -26.902344 -12.242188 C -31.832031 -8.957031 -32.214844 -3.464844 -29.972656 1.253906 C -27.625 6.195312 -23.386719 8.746094 -18.667969 6.503906 C -13.5 4.050781 -14.667969 -0.980469 -15.675781 -5.417969 C -16.480469 -8.855469 -17.195312 -11.9375 -14.660156 -13.140625 C -12.316406 -14.253906 -10.375 -12.816406 -9.171875 -10.28125 C -7.949219 -7.710938 -7.648438 -4.589844 -10.765625 -2.125 L -8.496094 2.65625 C -2.460938 -0.957031 -2.964844 -7.402344 -5.207031 -12.121094 Z M -5.207031 -12.121094 "/></g></g></g><g fill="#f13024" fill-opacity="0.302"><g transform="translate(104.089345, 216.723701)"><g/></g></g><g fill="#f13024" fill-opacity="0.302"><g transform="translate(101.813153, 208.721326)"><g/></g></g><g fill="#f13024" fill-opacity="0.302"><g transform="translate(100.317535, 200.537066)"><g/></g></g><g fill="#f13024" fill-opacity="0.302"><g transform="translate(98.86753, 193.196467)"><g><path d="M 0.550781 -5.585938 L -4.820312 -7.941406 L -3.804688 -18.230469 L 1.929688 -19.523438 L 2.457031 -24.863281 L -25.46875 -18.015625 L -26.019531 -12.425781 L 0.0234375 -0.246094 Z M -20.191406 -14.671875 L -8.402344 -17.257812 L -9.136719 -9.832031 Z M -20.191406 -14.671875 "/></g></g></g><g fill="#f13024" fill-opacity="0.302"><g transform="translate(101.624823, 170.348827)"><g/></g></g><g fill="#f13024" fill-opacity="0.302"><g transform="translate(103.822364, 162.32449)"><g/></g></g><g fill="#f13024" fill-opacity="0.302"><g transform="translate(106.781813, 154.548857)"><g/></g></g><g fill="#f13024" fill-opacity="0.302"><g transform="translate(108.586852, 147.561245)"><g><path d="M 4.75 -5.847656 L -13.207031 -20.4375 L 8.828125 -10.867188 L 11.988281 -14.757812 L -2 -34.453125 L 16.066406 -19.777344 L 19.292969 -23.75 L -1.75 -40.847656 L -7.128906 -34.226562 L 5.597656 -16.699219 L -14.1875 -25.539062 L -19.519531 -18.972656 L 1.523438 -1.875 Z M 4.75 -5.847656 "/></g></g></g><g fill="#f13024" fill-opacity="0.302"><g transform="translate(128.426871, 124.679169)"><g/></g></g><g fill="#f13024" fill-opacity="0.302"><g transform="translate(134.894483, 119.445709)"><g/></g></g><g fill="#f13024" fill-opacity="0.302"><g transform="translate(141.835632, 114.858842)"><g/></g></g><g fill="#f13024" fill-opacity="0.302"><g transform="translate(148.266544, 110.76368)"><g><path d="M 19.460938 -6.464844 L 18.015625 -10.816406 L 5.703125 -6.726562 L 3.585938 -13.101562 L 14.617188 -16.761719 L 13.183594 -21.082031 L 2.152344 -17.417969 L 0.046875 -23.757812 L 12.355469 -27.847656 L 10.914062 -32.195312 L -6.253906 -26.496094 L 2.292969 -0.761719 Z M 19.460938 -6.464844 "/></g></g></g><g fill="#f13024" fill-opacity="0.302"><g transform="translate(167.407346, 104.766004)"><g/></g></g><g fill="#f13024" fill-opacity="0.302"><g transform="translate(175.610159, 103.375731)"><g/></g></g><g fill="#f13024" fill-opacity="0.302"><g transform="translate(183.908686, 102.78119)"><g/></g></g><g fill="#f13024" fill-opacity="0.302"><g transform="translate(191.288655, 102.024893)"><g><path d="M 7.359375 1.609375 L 9.773438 -9.429688 L 21.125 -6.949219 L 18.710938 4.089844 L 23.710938 5.183594 L 29.503906 -21.304688 L 24.503906 -22.398438 L 22.105469 -11.425781 L 10.753906 -13.910156 L 13.152344 -24.878906 L 8.152344 -25.972656 L 2.359375 0.515625 Z M 7.359375 1.609375 "/></g></g></g><g fill="#f13024" fill-opacity="0.302"><g transform="translate(215.005948, 107.801441)"><g/></g></g><g fill="#f13024" fill-opacity="0.302"><g transform="translate(222.695815, 110.977113)"><g/></g></g><g fill="#f13024" fill-opacity="0.302"><g transform="translate(230.044444, 114.877988)"><g/></g></g><g fill="#f13024" fill-opacity="0.302"><g transform="translate(236.983628, 119.467852)"><g/></g></g><g fill="#f13024" fill-opacity="0.302"><g transform="translate(243.448948, 124.70412)"><g/></g></g><g fill="#f13024" fill-opacity="0.302"><g transform="translate(249.354092, 129.194663)"><g><path d="M 4.273438 6.203125 L 13.582031 -0.207031 L 20.171875 9.363281 L 10.867188 15.773438 L 13.769531 19.988281 L 36.101562 4.605469 L 33.195312 0.390625 L 23.949219 6.761719 L 17.355469 -2.808594 L 26.605469 -9.179688 L 23.699219 -13.394531 L 1.371094 1.988281 Z M 4.273438 6.203125 "/></g></g></g><g fill="#f13024" fill-opacity="0.302"><g transform="translate(262.723935, 149.618339)"><g/></g></g><g fill="#f13024" fill-opacity="0.302"><g transform="translate(266.168658, 157.191483)"><g/></g></g><g fill="#f13024" fill-opacity="0.302"><g transform="translate(269.361015, 163.955718)"><g><path d="M 0.824219 5.554688 L 6.613281 6.527344 L 8.132812 16.753906 L 2.886719 19.402344 L 3.675781 24.710938 L 29.089844 11.265625 L 28.261719 5.710938 L 0.0351562 0.246094 Z M 23.15625 9.308594 L 12.351562 14.691406 L 11.253906 7.308594 Z M 23.15625 9.308594 "/></g></g></g><g fill="#f13024" fill-opacity="0.302"><g transform="translate(272.256533, 186.788383)"><g/></g></g><g fill="#f13024" fill-opacity="0.302"><g transform="translate(272.08049, 195.106323)"><g/></g></g><g fill="#f13024" fill-opacity="0.302"><g transform="translate(272.730399, 202.296368)"><g><path d="M -2.511719 7.101562 L 19.300781 14.8125 L -4.667969 13.203125 L -6.335938 17.925781 L 13.453125 31.78125 L -8.492188 24.023438 L -10.199219 28.847656 L 15.367188 37.886719 L 18.210938 29.84375 L 0.335938 17.609375 L 21.941406 19.289062 L 24.761719 11.316406 L -0.804688 2.277344 Z M -2.511719 7.101562 "/></g></g></g><g fill="#f13024" fill-opacity="0.302"><g transform="translate(261.72454, 230.510582)"><g/></g></g><g fill="#f13024" fill-opacity="0.302"><g transform="translate(257.390319, 237.612216)"><g/></g></g><g fill="#f13024" fill-opacity="0.302"><g transform="translate(252.392846, 244.26388)"><g/></g></g><g fill="#f13024" fill-opacity="0.302"><g transform="translate(248.725436, 250.481099)"><g><path d="M -6.183594 4.300781 L 7.027344 23.292969 L -11.492188 7.996094 L -15.605469 10.859375 L -7.625 33.660156 L -20.917969 14.550781 L -25.117188 17.472656 L -9.632812 39.734375 L -2.628906 34.863281 L -10.003906 14.492188 L 6.558594 28.46875 L 13.5 23.640625 L -1.984375 1.378906 Z M -6.183594 4.300781 "/></g></g></g><g fill="#f13024" fill-opacity="0.302"><g transform="translate(223.320971, 266.969235)"><g/></g></g><g fill="#f13024" fill-opacity="0.302"><g transform="translate(215.656798, 270.206458)"><g/></g></g><g fill="#f13024" fill-opacity="0.302"><g transform="translate(208.80585, 273.213463)"><g><path d="M -5.574219 0.675781 L -6.703125 6.429688 L -16.96875 7.671875 L -19.476562 2.355469 L -24.800781 3 L -12.054688 28.773438 L -6.480469 28.097656 L -0.246094 0.03125 Z M -9.9375 22.894531 L -15.019531 11.949219 L -7.613281 11.050781 Z M -9.9375 22.894531 "/></g></g></g><g fill="#f13024" fill-opacity="0.302"><g transform="translate(185.90507, 275.485932)"><g/></g></g><g fill="#f13024" fill-opacity="0.302"><g transform="translate(177.595016, 275.083378)"><g/></g></g><g fill="#f13024" fill-opacity="0.302"><g transform="translate(170.141428, 274.877882)"><g><path d="M -9.746094 -3.347656 C -18.386719 -6.316406 -24.738281 -3.351562 -27.554688 4.851562 C -30.386719 13.085938 -27.226562 19.316406 -18.554688 22.296875 L -11.09375 24.859375 L -2.285156 -0.785156 Z M -14.445312 18.859375 L -17.035156 17.972656 C -22.210938 16.195312 -24.761719 12.460938 -22.714844 6.511719 C -20.535156 0.160156 -16.277344 -0.746094 -11.167969 1.011719 L -8.613281 1.886719 Z M -14.445312 18.859375 "/></g></g></g><g fill="#f13024" fill-opacity="1"><g transform="translate(113.355022, 237.201129)"><g><path d="M -5.207031 -12.121094 C -7.953125 -17.902344 -12.472656 -19.882812 -17.097656 -17.6875 C -22.648438 -15.050781 -21.4375 -9.683594 -20.402344 -5.183594 C -19.65625 -1.875 -18.984375 1.03125 -21.230469 2.097656 C -23.09375 2.980469 -24.882812 1.785156 -25.980469 -0.527344 C -27.167969 -3.03125 -26.972656 -5.679688 -24.660156 -7.523438 L -26.902344 -12.242188 C -31.832031 -8.957031 -32.214844 -3.464844 -29.972656 1.253906 C -27.625 6.195312 -23.386719 8.746094 -18.667969 6.503906 C -13.5 4.050781 -14.667969 -0.980469 -15.675781 -5.417969 C -16.480469 -8.855469 -17.195312 -11.9375 -14.660156 -13.140625 C -12.316406 -14.253906 -10.375 -12.816406 -9.171875 -10.28125 C -7.949219 -7.710938 -7.648438 -4.589844 -10.765625 -2.125 L -8.496094 2.65625 C -2.460938 -0.957031 -2.964844 -7.402344 -5.207031 -12.121094 Z M -5.207031 -12.121094 "/></g></g></g><g fill="#f13024" fill-opacity="1"><g transform="translate(104.109246, 216.637116)"><g/></g></g><g fill="#f13024" fill-opacity="1"><g transform="translate(101.833054, 208.634739)"><g/></g></g><g fill="#f13024" fill-opacity="1"><g transform="translate(100.337435, 200.450479)"><g/></g></g><g fill="#f13024" fill-opacity="1"><g transform="translate(98.887424, 193.10988)"><g><path d="M 0.550781 -5.585938 L -4.820312 -7.941406 L -3.804688 -18.230469 L 1.929688 -19.523438 L 2.457031 -24.863281 L -25.46875 -18.015625 L -26.019531 -12.425781 L 0.0234375 -0.246094 Z M -20.191406 -14.671875 L -8.402344 -17.257812 L -9.136719 -9.832031 Z M -20.191406 -14.671875 "/></g></g></g><g fill="#f13024" fill-opacity="1"><g transform="translate(101.644714, 170.26224)"><g/></g></g><g fill="#f13024" fill-opacity="1"><g transform="translate(103.842257, 162.237906)"><g/></g></g><g fill="#f13024" fill-opacity="1"><g transform="translate(106.801706, 154.462272)"><g/></g></g><g fill="#f13024" fill-opacity="1"><g transform="translate(108.606746, 147.474658)"><g><path d="M 4.75 -5.847656 L -13.207031 -20.4375 L 8.828125 -10.867188 L 11.988281 -14.757812 L -2 -34.453125 L 16.066406 -19.777344 L 19.292969 -23.75 L -1.75 -40.847656 L -7.128906 -34.226562 L 5.597656 -16.699219 L -14.1875 -25.539062 L -19.519531 -18.972656 L 1.523438 -1.875 Z M 4.75 -5.847656 "/></g></g></g><g fill="#f13024" fill-opacity="1"><g transform="translate(128.446776, 124.592574)"><g/></g></g><g fill="#f13024" fill-opacity="1"><g transform="translate(134.91437, 119.359115)"><g/></g></g><g fill="#f13024" fill-opacity="1"><g transform="translate(141.85554, 114.772254)"><g/></g></g><g fill="#f13024" fill-opacity="1"><g transform="translate(148.286437, 110.677093)"><g><path d="M 19.460938 -6.464844 L 18.015625 -10.816406 L 5.703125 -6.726562 L 3.585938 -13.101562 L 14.617188 -16.761719 L 13.183594 -21.082031 L 2.152344 -17.417969 L 0.046875 -23.757812 L 12.355469 -27.847656 L 10.914062 -32.195312 L -6.253906 -26.496094 L 2.292969 -0.761719 Z M 19.460938 -6.464844 "/></g></g></g><g fill="#f13024" fill-opacity="1"><g transform="translate(167.427239, 104.679417)"><g/></g></g><g fill="#f13024" fill-opacity="1"><g transform="translate(175.63005, 103.289137)"><g/></g></g><g fill="#f13024" fill-opacity="1"><g transform="translate(183.928592, 102.694596)"><g/></g></g><g fill="#f13024" fill-opacity="1"><g transform="translate(191.308549, 101.938298)"><g><path d="M 7.359375 1.609375 L 9.773438 -9.429688 L 21.125 -6.949219 L 18.710938 4.089844 L 23.710938 5.183594 L 29.503906 -21.304688 L 24.503906 -22.398438 L 22.105469 -11.425781 L 10.753906 -13.910156 L 13.152344 -24.878906 L 8.152344 -25.972656 L 2.359375 0.515625 Z M 7.359375 1.609375 "/></g></g></g><g fill="#f13024" fill-opacity="1"><g transform="translate(215.025842, 107.714854)"><g/></g></g><g fill="#f13024" fill-opacity="1"><g transform="translate(222.715723, 110.890519)"><g/></g></g><g fill="#f13024" fill-opacity="1"><g transform="translate(230.064337, 114.791393)"><g/></g></g><g fill="#f13024" fill-opacity="1"><g transform="translate(237.003519, 119.381258)"><g/></g></g><g fill="#f13024" fill-opacity="1"><g transform="translate(243.468842, 124.617533)"><g/></g></g><g fill="#ffffff" fill-opacity="1"><g transform="translate(249.373983, 129.108083)"><g><path d="M 4.273438 6.203125 L 13.582031 -0.207031 L 20.171875 9.363281 L 10.867188 15.773438 L 13.769531 19.988281 L 36.101562 4.605469 L 33.195312 0.390625 L 23.949219 6.761719 L 17.355469 -2.808594 L 26.605469 -9.179688 L 23.699219 -13.394531 L 1.371094 1.988281 Z M 4.273438 6.203125 "/></g></g></g><g fill="#ffffff" fill-opacity="1"><g transform="translate(262.743826, 149.531737)"><g/></g></g><g fill="#ffffff" fill-opacity="1"><g transform="translate(266.188581, 157.104896)"><g/></g></g><g fill="#ffffff" fill-opacity="1"><g transform="translate(269.380908, 163.869117)"><g><path d="M 0.824219 5.554688 L 6.613281 6.527344 L 8.132812 16.753906 L 2.886719 19.402344 L 3.675781 24.710938 L 29.089844 11.265625 L 28.261719 5.710938 L 0.0351562 0.246094 Z M 23.15625 9.308594 L 12.351562 14.691406 L 11.253906 7.308594 Z M 23.15625 9.308594 "/></g></g></g><g fill="#ffffff" fill-opacity="1"><g transform="translate(272.276453, 186.701796)"><g/></g></g><g fill="#ffffff" fill-opacity="1"><g transform="translate(272.100383, 195.019736)"><g/></g></g><g fill="#ffffff" fill-opacity="1"><g transform="translate(272.750322, 202.209781)"><g><path d="M -2.511719 7.101562 L 19.300781 14.8125 L -4.667969 13.203125 L -6.335938 17.925781 L 13.453125 31.78125 L -8.492188 24.023438 L -10.199219 28.847656 L 15.367188 37.886719 L 18.210938 29.84375 L 0.335938 17.609375 L 21.941406 19.289062 L 24.761719 11.316406 L -0.804688 2.277344 Z M -2.511719 7.101562 "/></g></g></g><g fill="#ffffff" fill-opacity="1"><g transform="translate(261.744434, 230.423983)"><g/></g></g><g fill="#ffffff" fill-opacity="1"><g transform="translate(257.410213, 237.525644)"><g/></g></g><g fill="#ffffff" fill-opacity="1"><g transform="translate(252.412739, 244.177278)"><g/></g></g><g fill="#ffffff" fill-opacity="1"><g transform="translate(248.74533, 250.394497)"><g><path d="M -6.183594 4.300781 L 7.027344 23.292969 L -11.492188 7.996094 L -15.605469 10.859375 L -7.625 33.660156 L -20.917969 14.550781 L -25.117188 17.472656 L -9.632812 39.734375 L -2.628906 34.863281 L -10.003906 14.492188 L 6.558594 28.46875 L 13.5 23.640625 L -1.984375 1.378906 Z M -6.183594 4.300781 "/></g></g></g><g fill="#ffffff" fill-opacity="1"><g transform="translate(223.340862, 266.882662)"><g/></g></g><g fill="#ffffff" fill-opacity="1"><g transform="translate(215.676689, 270.119857)"><g/></g></g><g fill="#ffffff" fill-opacity="1"><g transform="translate(208.825742, 273.126861)"><g><path d="M -5.574219 0.675781 L -6.703125 6.429688 L -16.96875 7.671875 L -19.476562 2.355469 L -24.800781 3 L -12.054688 28.773438 L -6.480469 28.097656 L -0.246094 0.03125 Z M -9.9375 22.894531 L -15.019531 11.949219 L -7.613281 11.050781 Z M -9.9375 22.894531 "/></g></g></g><g fill="#ffffff" fill-opacity="1"><g transform="translate(185.924978, 275.39933)"><g/></g></g><g fill="#ffffff" fill-opacity="1"><g transform="translate(177.614924, 274.996776)"><g/></g></g><g fill="#ffffff" fill-opacity="1"><g transform="translate(170.16132, 274.791309)"><g><path d="M -9.746094 -3.347656 C -18.386719 -6.316406 -24.738281 -3.351562 -27.554688 4.851562 C -30.386719 13.085938 -27.226562 19.316406 -18.554688 22.296875 L -11.09375 24.859375 L -2.285156 -0.785156 Z M -14.445312 18.859375 L -17.035156 17.972656 C -22.210938 16.195312 -24.761719 12.460938 -22.714844 6.511719 C -20.535156 0.160156 -16.277344 -0.746094 -11.167969 1.011719 L -8.613281 1.886719 Z M -14.445312 18.859375 "/></g></g></g></svg>