<svg xmlns="http://www.w3.org/2000/svg" xmlns:xlink="http://www.w3.org/1999/xlink" width="500" zoomAndPan="magnify" viewBox="0 0 375 374.999991" height="500" preserveAspectRatio="xMidYMid meet" version="1.0"><defs><clipPath id="d008b0ab01"><path d="M 132.628906 220 L 180 220 L 180 257 L 132.628906 257 Z M 132.628906 220 " clip-rule="nonzero"/></clipPath><clipPath id="a0d1132b54"><path d="M 183 128.46875 L 189 128.46875 L 189 269.46875 L 183 269.46875 Z M 183 128.46875 " clip-rule="nonzero"/></clipPath><clipPath id="a05d69875b"><path d="M 191 141 L 242.128906 141 L 242.128906 257 L 191 257 Z M 191 141 " clip-rule="nonzero"/></clipPath></defs><path fill="#ffffff" d="M 179.425781 205.539062 L 179.425781 186.667969 C 167.460938 185.058594 157.65625 182.179688 157.65625 173.300781 C 157.65625 165.359375 164.71875 159.070312 179.425781 158.855469 L 179.425781 140.96875 C 159.410156 141.171875 137.449219 150.351562 137.449219 172.679688 C 137.449219 196.800781 157.496094 202.847656 179.425781 205.539062 Z M 179.425781 205.539062 " fill-opacity="1" fill-rule="nonzero"/><g clip-path="url(#d008b0ab01)"><path fill="#ffffff" d="M 179.425781 237.957031 C 166.554688 237.714844 154.433594 232.402344 149.730469 220.710938 L 132.628906 229.574219 C 140.640625 249.28125 157.5 256.175781 179.425781 256.304688 Z M 179.425781 237.957031 " fill-opacity="1" fill-rule="nonzero"/></g><g clip-path="url(#a0d1132b54)"><path fill="#ffffff" d="M 183.945312 128.484375 L 188.464844 128.484375 L 188.464844 269.136719 L 183.945312 269.136719 Z M 183.945312 128.484375 " fill-opacity="1" fill-rule="nonzero"/></g><g clip-path="url(#a05d69875b)"><path fill="#f13024" d="M 220.726562 141.195312 L 220.726562 189.894531 L 191.613281 189.894531 L 191.613281 210.035156 L 220.726562 210.035156 L 220.726562 256.753906 L 242.355469 256.753906 L 242.355469 141.195312 Z M 220.726562 141.195312 " fill-opacity="1" fill-rule="nonzero"/></g></svg>