<svg width="300" height="38" viewBox="0 0 300 38" fill="none" xmlns="http://www.w3.org/2000/svg">
<path d="M0 30.5729L6.36 21.3175C7.74 23.0491 9.3 24.3628 10.86 25.3182C12.48 26.2736 14.1 26.6916 15.66 26.6916C16.38 26.6916 16.92 26.5722 17.34 26.3333C17.76 26.0945 18 25.7362 18 25.3182C18 24.6614 17.1 24.0045 15.24 23.2283C14.82 23.0491 14.52 22.9297 14.28 22.87C11.22 21.616 9 20.1829 7.62 18.511C6.24 16.839 5.52 14.8685 5.52 12.5397C5.52 8.83749 6.9 5.85185 9.6 3.52305C12.36 1.13454 15.9 0 20.28 0C22.8 0 25.14 0.358277 27.24 1.13454C29.4 1.8511 31.32 2.98564 33.12 4.41875L28.14 13.1368C26.7 11.8828 25.38 10.9274 24.24 10.3303C23.04 9.73318 21.96 9.43462 21 9.43462C20.4 9.43462 19.92 9.55404 19.56 9.85261C19.2 10.1512 19.02 10.5094 19.02 10.9872C19.02 11.7634 20.1 12.5994 22.2 13.4951C22.74 13.7339 23.22 13.9131 23.52 14.0922C26.28 15.3462 28.26 16.7196 29.4 18.2721C30.54 19.8246 31.14 21.7355 31.14 24.124C31.14 27.8262 29.7 30.9312 26.82 33.3794C23.94 35.8277 20.28 37.0219 15.84 37.0219C13.08 37.0219 10.32 36.4845 7.62 35.4097C4.98 34.2751 2.4 32.7226 0 30.5729Z" fill="white"/>
<path d="M40.1996 36.186L44.7596 11.5247H37.1396L39.1796 0.776367H67.1397L65.1596 11.5247H57.7796L53.2196 36.186H40.1996Z" fill="white"/>
<path d="M105.72 36.1859L112.26 0.835938H126C131.16 0.835938 135 1.73163 137.7 3.52301C140.34 5.3144 141.66 7.94176 141.66 11.4648C141.66 14.3907 140.88 16.839 139.38 18.8095C137.88 20.78 135.72 22.034 132.9 22.6311L138 36.2456H124.8L120.96 23.4074L118.56 36.2456L105.72 36.1859ZM122.22 16.4807H123.18C125.16 16.4807 126.6 16.1821 127.5 15.5253C128.4 14.8684 128.88 13.913 128.88 12.5396C128.88 11.5245 128.52 10.7483 127.8 10.2706C127.08 9.79285 125.88 9.554 124.32 9.554H123.54L122.22 16.4807Z" fill="white"/>
<path d="M151.14 36.186L155.7 11.5247H148.08L150.12 0.776367H178.08L176.1 11.5247H168.72L164.16 36.186H151.14Z" fill="white"/>
<path d="M176.94 30.573L183.3 21.3176C184.68 23.0492 186.24 24.3629 187.8 25.3183C189.42 26.2737 191.04 26.6917 192.6 26.6917C193.32 26.6917 193.86 26.5723 194.28 26.3334C194.7 26.0946 194.94 25.7363 194.94 25.3183C194.94 24.6615 194.04 24.0046 192.18 23.2284C191.76 23.0492 191.46 22.9298 191.22 22.8701C188.16 21.6161 185.94 20.183 184.56 18.5111C183.18 16.8391 182.46 14.8686 182.46 12.5398C182.46 8.83759 183.84 5.85195 186.54 3.52316C189.24 1.19436 192.78 0.0598145 197.16 0.0598145C199.68 0.0598145 202.02 0.418091 204.12 1.19436C206.22 1.97062 208.2 3.04545 210 4.53827L205.14 13.1369C203.7 11.8829 202.38 10.9275 201.24 10.3304C200.04 9.73328 198.96 9.43472 198 9.43472C197.4 9.43472 196.92 9.55414 196.56 9.85271C196.2 10.1513 196.02 10.5095 196.02 10.9873C196.02 11.7635 197.1 12.5995 199.2 13.4952C199.74 13.734 200.22 13.9132 200.52 14.0923C203.28 15.3463 205.26 16.7197 206.4 18.2722C207.54 19.8247 208.14 21.7356 208.14 24.1241C208.14 27.8263 206.7 30.9313 203.82 33.3795C200.94 35.8278 197.22 37.022 192.84 37.022C190.08 37.022 187.32 36.4846 184.62 35.4098C181.92 34.2752 179.4 32.7227 176.94 30.573Z" fill="white"/>
<path d="M212.7 36.1859L219.3 0.835938H232.38L225.84 36.1859H212.7Z" fill="white"/>
<path d="M241.02 36.186L245.58 11.5247H237.96L240 0.776367H267.96L265.98 11.5247H258.6L254.04 36.186H241.02Z" fill="white"/>
<path d="M269.04 36.1859L275.58 0.835938H300L298.26 10.4497H286.68L286.02 13.8533H296.94L295.26 22.8102H284.4L283.68 26.6319H296.28L294.48 36.2456L269.04 36.1859Z" fill="white"/>
<path d="M95.58 0.776367H81.54L63 36.186H68.7L70.86 33.081L76.98 28.7817L74.88 36.186H76.8L81.24 19.8845L85.5 11.9427C87.06 10.0318 86.34 9.97213 87.06 12.1815L88.86 20.5413L87.6 36.186H89.64L90.12 29.5579L94.86 34.9321L95.16 36.186H100.26L95.58 0.776367Z" fill="white"/>
<path d="M83.9999 29.1398C85.723 29.1398 87.1199 27.7496 87.1199 26.0347C87.1199 24.3199 85.723 22.9297 83.9999 22.9297C82.2768 22.9297 80.8799 24.3199 80.8799 26.0347C80.8799 27.7496 82.2768 29.1398 83.9999 29.1398Z" fill="white"/>
</svg>
